<svg xmlns="http://www.w3.org/2000/svg" viewBox="0 0 418.84 418.84"><defs><style>.cls-1{fill:#e71c66;}.cls-2,.cls-4{fill:#fff;}.cls-2,.cls-3{stroke:#fff;stroke-miterlimit:10;}.cls-3{fill:none;stroke-width:10px;}</style></defs><title>logo</title><g id="Layer_2" data-name="Layer 2"><g id="logo"><g id="logo-2" data-name="logo"><rect id="Background" class="cls-1" width="418.84" height="418.84"/><circle class="cls-2" cx="209.42" cy="209.42" r="33.88"/><ellipse class="cls-3" cx="209.42" cy="209.42" rx="53.42" ry="150.6"/><ellipse class="cls-3" cx="209.42" cy="209.42" rx="150.6" ry="53.42" transform="translate(-86.74 209.42) rotate(-45)"/><ellipse class="cls-3" cx="209.42" cy="209.42" rx="53.42" ry="150.6" transform="translate(-86.74 209.42) rotate(-45)"/><path id="Lightbulb" class="cls-1" d="M205.62,220.68h1.92V211.3h3.76v9.38h1.92c.25-2.26,1.4-4.12,3.27-6.15.21-.23,1.56-1.63,1.72-1.83a11.26,11.26,0,1,0-17.58,0c.16.2,1.51,1.6,1.72,1.83C204.22,216.56,205.37,218.42,205.62,220.68Zm0,3.75v1.88h7.5v-1.88Zm-8-9.38a15,15,0,1,1,23.44,0c-1.17,1.45-4.21,3.75-4.21,6.57v4.69a3.75,3.75,0,0,1-3.76,3.75h-7.5a3.75,3.75,0,0,1-3.76-3.75v-4.69C201.91,218.8,198.86,216.5,197.7,215.05Z"/><path id="Explorer" class="cls-4" d="M117.26,118.43a1.14,1.14,0,1,0,1.1-1.17A1.13,1.13,0,0,0,117.26,118.43Zm-10.2.32a11.34,11.34,0,1,1,11.7,11A11.33,11.33,0,0,1,107.06,118.75Zm2.26-.07a9.08,9.08,0,1,0,8.79-9.36A9.07,9.07,0,0,0,109.32,118.68Zm14.34,4.65-7.46-2.6-3.07-7.28,7.46,2.6Z"/><path id="Love" class="cls-4" d="M298,298a6,6,0,0,1,12,0v12H298a6,6,0,0,1,0-12Zm6-3.67a4,4,0,0,0-4,3.78l-.1,1.79-1.79.1a4,4,0,0,0-.06,8H308v-9.94A4,4,0,0,0,304,294.37Z"/><path id="Fear" class="cls-4" d="M112.38,307.87a5,5,0,0,0,6.29-.63l2.13-2.12a5.28,5.28,0,0,0,1.12-1.71l-6.49-6.49a5.12,5.12,0,0,0-1.71,1.12l-2.12,2.13a5,5,0,0,0-.63,6.29l4.17-4.17,1.41,1.41ZM108.67,301a7,7,0,0,1,1.52-2.28l-2.12-2.12,1.41-1.41,2.12,2.12.71-.71a7.37,7.37,0,0,1,1.49-1.14l-.66-2.47,1.93-.51.6,2.25.36-.07,8.12,8.12c0,.12,0,.24-.07.36l2.25.6-.52,1.93-2.46-.66a7.66,7.66,0,0,1-1.14,1.49l-.71.71,2.12,2.12-1.41,1.41-2.12-2.12a7.06,7.06,0,0,1-2.28,1.52l.74,2.79-1.93.52-.75-2.82a7,7,0,0,1-7.69-7.69l-2.82-.75.52-1.93,2.79.74Zm10-6.52a4,4,0,0,1,5.66,5.66Z"/><path id="Aggressior" class="cls-4" d="M301.91,117.83l6.29,5-17.13,5.61,5.56-7.08-5.5-4.32,16.34-6.23Zm-2.81.34,2.34-3-6.3,2.4,4.3,3.38-2.72,3.45L304,122Z"/></g></g></g></svg>