<svg xmlns="http://www.w3.org/2000/svg" viewBox="0 0 415.06 143.5"><defs><style>.cls-1{stroke:#1d1d1b;}.cls-1,.cls-3,.cls-4{stroke-miterlimit:10;}.cls-2{fill:#e71c66;}.cls-11,.cls-3,.cls-5,.cls-6{fill:#fff;}.cls-3,.cls-4{stroke:#fff;stroke-width:3px;}.cls-4{fill:none;}.cls-6{font-size:45px;font-family:Inter-SemiBold, Inter;font-weight:600;}.cls-7{letter-spacing:-0.01em;}.cls-8{letter-spacing:-0.01em;}.cls-9{letter-spacing:-0.02em;}.cls-10{letter-spacing:-0.01em;}.cls-11{font-size:15px;font-family:Inter-Light, Inter;font-weight:300;}.cls-12{letter-spacing:-0.02em;}.cls-13{letter-spacing:0.01em;}.cls-14{letter-spacing:-0.06em;}</style></defs><title>logo-text-white-bg-black</title><g id="Layer_2" data-name="Layer 2"><g id="logo-text-white-bg-black"><g id="logo-text-white-bg-black-2" data-name="logo-text-white-bg-black"><rect class="cls-1" x="0.5" y="0.5" width="405.21" height="142.5"/><g id="logo"><rect id="Background" class="cls-2" x="0.5" y="0.5" width="142.5" height="142.5"/><circle class="cls-3" cx="71.75" cy="71.75" r="11.53"/><ellipse class="cls-4" cx="71.75" cy="71.75" rx="18.17" ry="51.24"/><ellipse class="cls-4" cx="71.75" cy="71.75" rx="51.24" ry="18.17" transform="translate(-29.72 71.75) rotate(-45)"/><ellipse class="cls-4" cx="71.75" cy="71.75" rx="18.17" ry="51.24" transform="translate(-29.72 71.75) rotate(-45)"/><path id="Lightbulb" class="cls-2" d="M70.45,75.58h.66V72.39h1.28v3.19H73a3.71,3.71,0,0,1,1.11-2.09l.59-.62a3.83,3.83,0,1,0-6,0c0,.07.51.55.58.63A3.6,3.6,0,0,1,70.45,75.58Zm0,1.28v.64H73v-.64Zm-2.71-3.2a5.11,5.11,0,1,1,8,0c-.4.49-1.44,1.27-1.44,2.23v1.6A1.27,1.27,0,0,1,73,78.77H70.47a1.28,1.28,0,0,1-1.28-1.27V75.9C69.19,74.94,68.16,74.16,67.76,73.66Z"/><path id="Explorer" class="cls-5" d="M40.39,40.79a.39.39,0,1,0,.38-.4A.4.4,0,0,0,40.39,40.79Zm-3.47.11a3.86,3.86,0,1,1,4,3.74A3.86,3.86,0,0,1,36.92,40.9Zm.77,0a3.09,3.09,0,1,0,3-3.19A3.1,3.1,0,0,0,37.69,40.88Zm4.88,1.58L40,41.58,39,39.1l2.54.88Z"/><path id="Love" class="cls-5" d="M101.9,101.9a2,2,0,0,1,4.08,0V106H101.9a2,2,0,0,1,0-4.08Zm2-1.25a1.36,1.36,0,0,0-1.36,1.29l0,.61-.61,0a1.36,1.36,0,0,0,0,2.71h3.38v-3.38A1.37,1.37,0,0,0,103.94,100.65Z"/><path id="Fear" class="cls-5" d="M38.73,105.24a1.71,1.71,0,0,0,2.15-.21l.72-.72a2,2,0,0,0,.38-.58l-2.21-2.21a1.58,1.58,0,0,0-.58.38l-.72.72a1.71,1.71,0,0,0-.22,2.14l1.42-1.42.48.49Zm-1.26-2.32a2.42,2.42,0,0,1,.52-.78l-.72-.72.48-.48.72.72.24-.24a2.38,2.38,0,0,1,.51-.39l-.23-.84.66-.17.2.76.12,0,2.77,2.76,0,.12.77.21-.18.66-.84-.23a2.6,2.6,0,0,1-.38.51l-.24.24.72.72-.48.48-.72-.72a2.48,2.48,0,0,1-.78.52l.25,1-.65.17-.26-1a2.36,2.36,0,0,1-1.93-.68,2.4,2.4,0,0,1-.69-1.93l-.95-.26.17-.66.95.26Zm3.41-2.22a1.36,1.36,0,1,1,1.92,1.92Z"/><path id="Aggressior" class="cls-5" d="M103.22,40.59l2.14,1.68-5.83,1.91,1.89-2.41L99.55,40.3l5.56-2.12Zm-1,.11.8-1-2.15.82,1.47,1.15-.93,1.17,2.49-.81Z"/></g><g id="text"><text class="cls-6" transform="translate(148.38 65.89)">B<tspan class="cls-7" x="29.58" y="0">r</tspan><tspan x="46.97" y="0">ai</tspan><tspan class="cls-8" x="84.55" y="0">t</tspan><tspan x="101.39" y="0">enbe</tspan><tspan class="cls-9" x="210.54" y="0">r</tspan><tspan x="227.37" y="0">g </tspan><tspan x="0" y="39">Simula</tspan><tspan class="cls-10" x="146.3" y="39">t</tspan><tspan x="163.14" y="39">or</tspan></text><text class="cls-11" transform="translate(151.45 121.88)">c<tspan class="cls-12" x="8.35" y="0">r</tspan><tspan x="13.44" y="0">ea</tspan><tspan class="cls-8" x="30.49" y="0">t</tspan><tspan x="35.78" y="0">ed at </tspan><tspan class="cls-13" x="75.85" y="0">t</tspan><tspan x="81.4" y="0">he T</tspan><tspan class="cls-14" x="112.56" y="0">U</tspan><tspan x="122.88" y="0">/e</tspan></text></g></g></g></g></svg>