<svg xmlns="http://www.w3.org/2000/svg" viewBox="0 0 414.56 142.5"><defs><style>.cls-1{fill:#e71c66;}.cls-2,.cls-4{fill:#fff;}.cls-2,.cls-3{stroke:#fff;stroke-miterlimit:10;stroke-width:3px;}.cls-3{fill:none;}.cls-5{font-size:45px;font-family:Inter-SemiBold, Inter;font-weight:600;}.cls-10,.cls-5{fill:#1d1d1b;}.cls-6{letter-spacing:-0.01em;}.cls-7{letter-spacing:-0.01em;}.cls-8{letter-spacing:-0.02em;}.cls-9{letter-spacing:-0.01em;}.cls-10{font-size:15px;font-family:Inter-Light, Inter;font-weight:300;}.cls-11{letter-spacing:-0.02em;}.cls-12{letter-spacing:0.01em;}.cls-13{letter-spacing:-0.06em;}</style></defs><title>logo-text-black</title><g id="Layer_2" data-name="Layer 2"><g id="logo-text-black"><g id="logo-text-black-2" data-name="logo-text-black"><g id="logo"><rect id="Background" class="cls-1" width="142.5" height="142.5"/><circle class="cls-2" cx="71.25" cy="71.25" r="11.53"/><ellipse class="cls-3" cx="71.25" cy="71.25" rx="18.17" ry="51.24"/><ellipse class="cls-3" cx="71.25" cy="71.25" rx="51.24" ry="18.17" transform="translate(-29.51 71.25) rotate(-45)"/><ellipse class="cls-3" cx="71.25" cy="71.25" rx="18.17" ry="51.24" transform="translate(-29.51 71.25) rotate(-45)"/><path id="Lightbulb" class="cls-1" d="M70,75.08h.66V71.89h1.28v3.19h.65A3.71,3.71,0,0,1,73.65,73l.59-.62a3.83,3.83,0,1,0-6,0c0,.07.51.55.58.63A3.6,3.6,0,0,1,70,75.08Zm0,1.28V77h2.56v-.64Zm-2.71-3.2a5.11,5.11,0,1,1,8,0c-.4.49-1.44,1.27-1.44,2.23V77a1.27,1.27,0,0,1-1.27,1.27H70A1.28,1.28,0,0,1,68.69,77V75.4C68.69,74.44,67.66,73.66,67.26,73.16Z"/><path id="Explorer" class="cls-4" d="M39.89,40.29a.39.39,0,1,0,.38-.4A.4.4,0,0,0,39.89,40.29Zm-3.47.11a3.86,3.86,0,1,1,4,3.74A3.86,3.86,0,0,1,36.42,40.4Zm.77,0a3.09,3.09,0,1,0,3-3.19A3.1,3.1,0,0,0,37.19,40.38ZM42.07,42l-2.54-.88-1-2.48,2.54.88Z"/><path id="Love" class="cls-4" d="M101.4,101.4a2,2,0,0,1,4.08,0v4.08H101.4a2,2,0,0,1,0-4.08Zm2-1.25a1.36,1.36,0,0,0-1.36,1.29l0,.61-.61,0a1.36,1.36,0,0,0,0,2.71h3.38v-3.38A1.37,1.37,0,0,0,103.44,100.15Z"/><path id="Fear" class="cls-4" d="M38.23,104.74a1.71,1.71,0,0,0,2.15-.21l.72-.72a2,2,0,0,0,.38-.58L39.27,101a1.58,1.58,0,0,0-.58.38l-.72.72a1.71,1.71,0,0,0-.22,2.14l1.42-1.42.48.49ZM37,102.42a2.42,2.42,0,0,1,.52-.78l-.72-.72.48-.48.72.72.24-.24a2.38,2.38,0,0,1,.51-.39l-.23-.84.66-.17.2.76.12,0L42.24,103l0,.12.77.21-.18.66-.84-.23a2.6,2.6,0,0,1-.38.51l-.24.24.72.72-.48.48-.72-.72a2.48,2.48,0,0,1-.78.52l.25,1-.65.17-.26-1a2.36,2.36,0,0,1-1.93-.68,2.4,2.4,0,0,1-.69-1.93l-.95-.26.17-.66.95.26Zm3.41-2.22a1.36,1.36,0,1,1,1.92,1.92Z"/><path id="Aggressior" class="cls-4" d="M102.72,40.09l2.14,1.68L99,43.68l1.89-2.41L99.05,39.8l5.56-2.12Zm-1,.11.8-1-2.15.82,1.47,1.15L101,42.33l2.49-.81Z"/></g><g id="text"><text class="cls-5" transform="translate(147.88 65.39)">B<tspan class="cls-6" x="29.58" y="0">r</tspan><tspan x="46.97" y="0">ai</tspan><tspan class="cls-7" x="84.55" y="0">t</tspan><tspan x="101.39" y="0">enbe</tspan><tspan class="cls-8" x="210.54" y="0">r</tspan><tspan x="227.37" y="0">g </tspan><tspan x="0" y="39">Simula</tspan><tspan class="cls-9" x="146.3" y="39">t</tspan><tspan x="163.14" y="39">or</tspan></text><text class="cls-10" transform="translate(150.95 121.38)">c<tspan class="cls-11" x="8.35" y="0">r</tspan><tspan x="13.44" y="0">ea</tspan><tspan class="cls-7" x="30.49" y="0">t</tspan><tspan x="35.78" y="0">ed at </tspan><tspan class="cls-12" x="75.85" y="0">t</tspan><tspan x="81.4" y="0">he T</tspan><tspan class="cls-13" x="112.56" y="0">U</tspan><tspan x="122.88" y="0">/e</tspan></text></g></g></g></g></svg>